<svg width="56" height="57" viewBox="0 0 56 57" fill="none" xmlns="http://www.w3.org/2000/svg">
<path d="M27.5183 46.6475L27.5161 50.3861C27.5161 50.7919 27.7157 51.0623 27.996 51.0623C28.2764 51.0623 28.4769 50.7925 28.4772 50.3873L28.479 46.6484C28.479 46.2426 28.2795 45.9725 27.9991 45.9722C27.7187 45.9719 27.5183 46.2448 27.5183 46.6475Z" fill="#EF7E01"/>
<path d="M37.6433 43.9363C37.4407 43.5847 37.1321 43.4509 36.8896 43.5906C36.647 43.7303 36.6079 44.0649 36.8105 44.4158L38.6784 47.6546C38.881 48.0062 39.1893 48.14 39.4322 48C39.6751 47.86 39.7135 47.5261 39.5112 47.1751L37.6433 43.9363Z" fill="#EF7E01"/>
<path d="M44.2258 37.004C43.8747 36.8008 43.5404 36.8389 43.4001 37.0815C43.2597 37.324 43.3936 37.6328 43.7446 37.8354L46.9819 39.7067C47.3332 39.9099 47.6671 39.8718 47.8072 39.6289C47.9472 39.3861 47.814 39.0779 47.4633 38.875L44.2258 37.004Z" fill="#EF7E01"/>
<path d="M50.873 28.1932C50.873 27.9145 50.6034 27.7126 50.1982 27.7123L46.4587 27.7104C46.0529 27.7104 45.7827 27.9099 45.7827 28.1901C45.7827 28.4704 46.0526 28.6708 46.4578 28.6708L50.1973 28.6729C50.6028 28.6733 50.873 28.4735 50.873 28.1932Z" fill="#EF7E01"/>
<path d="M46.9839 16.6785L43.7445 18.546C43.3928 18.7486 43.259 19.0571 43.3987 19.2997C43.5385 19.5422 43.873 19.5812 44.2238 19.3786L47.4635 17.5115C47.8151 17.3086 47.949 17.0004 47.8089 16.7578C47.6689 16.5153 47.3349 16.4772 46.9839 16.6785Z" fill="#EF7E01"/>
<path d="M39.4363 8.38587C39.1941 8.24523 38.8852 8.37905 38.6822 8.72972L36.8109 11.9668C36.6077 12.3181 36.6458 12.652 36.8884 12.7924C37.131 12.9327 37.4399 12.7989 37.6425 12.4482L39.5141 9.2111C39.7173 8.85982 39.6792 8.52589 39.4363 8.38587Z" fill="#EF7E01"/>
<path d="M28.4769 9.73524L28.479 5.99645C28.479 5.59098 28.2795 5.32056 27.9991 5.32056C27.7187 5.32056 27.5183 5.59036 27.518 5.99552L27.5161 9.73431C27.5161 10.1401 27.7157 10.4102 27.996 10.4105C28.2764 10.4108 28.4769 10.1404 28.4769 9.73524Z" fill="#EF7E01"/>
<path d="M18.3501 12.448C18.5527 12.7996 18.8612 12.9334 19.1038 12.7937C19.3464 12.654 19.3854 12.3194 19.1828 11.9688L17.3149 8.72964C17.1123 8.37806 16.8041 8.24425 16.5615 8.38426C16.3189 8.52427 16.2799 8.85819 16.4822 9.20914L18.3501 12.448Z" fill="#EF7E01"/>
<path d="M11.769 19.3805C12.1204 19.5837 12.4543 19.5456 12.5947 19.303C12.735 19.0605 12.6012 18.7517 12.2505 18.5491L9.01326 16.6778C8.66193 16.4746 8.32765 16.5127 8.18761 16.7556C8.04758 16.9984 8.18079 17.3066 8.5315 17.5095L11.769 19.3805Z" fill="#EF7E01"/>
<path d="M5.12256 28.1901C5.12256 28.4689 5.39211 28.6708 5.79734 28.6711L9.53679 28.6729C9.94265 28.6729 10.2128 28.4735 10.2131 28.1932C10.2134 27.913 9.94327 27.7126 9.53772 27.7126L5.79857 27.7104C5.3921 27.7101 5.12256 27.9099 5.12256 28.1901Z" fill="#EF7E01"/>
<path d="M9.01153 39.7053L12.251 37.8379C12.6026 37.6353 12.7364 37.3268 12.5967 37.0843C12.457 36.8418 12.1227 36.8028 11.7713 37.0053L8.53195 38.8727C8.18031 39.0753 8.04648 39.3835 8.18651 39.626C8.32655 39.8685 8.66052 39.9075 9.01153 39.7053Z" fill="#EF7E01"/>
<path d="M19.106 43.5922C18.8634 43.4519 18.5545 43.5857 18.3522 43.9367L16.4804 47.1734C16.2771 47.5246 16.3152 47.8586 16.5581 47.9986C16.801 48.1386 17.1093 48.0054 17.3122 47.6547L19.1835 44.4177C19.3867 44.0665 19.3486 43.7325 19.106 43.5922Z" fill="#EF7E01"/>
<path d="M20.4797 22.3656C20.2551 22.6332 20.146 22.979 20.1764 23.3269C20.2068 23.6749 20.3742 23.9965 20.6417 24.2211L27.1515 29.6825C27.3816 29.8757 27.671 29.9843 27.9714 29.9904C28.2718 29.9965 28.5653 29.8996 28.8031 29.7159L38.9681 21.8716C39.105 21.7658 39.2198 21.6341 39.3058 21.484C39.3918 21.3339 39.4474 21.1683 39.4694 20.9967C39.4915 20.8252 39.4795 20.6509 39.4342 20.484C39.3888 20.317 39.311 20.1606 39.2052 20.0237C39.0995 19.8868 38.9678 19.7721 38.8176 19.6861C38.6675 19.6 38.5019 19.5445 38.3303 19.5224C38.1586 19.5004 37.9844 19.5124 37.8174 19.5577C37.6504 19.6031 37.494 19.6808 37.3571 19.7866L28.0317 26.9832L22.3342 22.203C22.0667 21.9788 21.721 21.8699 21.3733 21.9004C21.0255 21.9309 20.7041 22.0983 20.4797 22.3656Z" fill="#EF7E01"/>
<path d="M27.9974 0.677002C21.5944 0.679212 15.3854 2.87501 10.405 6.89857C5.42454 10.9221 1.97343 16.5305 0.626606 22.7892C-0.720219 29.0479 0.118573 35.5791 3.00325 41.2945C5.88792 47.01 10.6443 51.5646 16.4799 54.1996C16.6112 54.2589 16.753 54.2918 16.8971 54.2964C17.0412 54.3009 17.1848 54.2771 17.3196 54.2262C17.4545 54.1753 17.578 54.0983 17.6831 53.9996C17.7882 53.901 17.8729 53.7826 17.9323 53.6513C17.9916 53.5199 18.0245 53.3782 18.0291 53.2341C18.0337 53.0901 18.0098 52.9465 17.9589 52.8117C17.908 52.6768 17.831 52.5533 17.7323 52.4482C17.6337 52.3431 17.5153 52.2585 17.3839 52.1991C11.3207 49.4612 6.5567 44.4778 4.09495 38.2983C1.63319 32.1187 1.6658 25.2252 4.1859 19.0692C6.706 12.9131 11.5169 7.97503 17.6057 5.29459C23.6945 2.61414 30.5861 2.40054 36.8292 4.69874C43.0724 6.99694 48.1801 11.6276 51.0767 17.6157C53.9734 23.6038 54.433 30.4821 52.3588 36.8023C50.2846 43.1225 45.8385 48.3913 39.9566 51.4995C34.0747 54.6076 27.216 55.3125 20.8247 53.4657C20.5462 53.3892 20.2488 53.4253 19.9969 53.5664C19.7449 53.7075 19.5587 53.9421 19.4786 54.2195C19.3984 54.4969 19.4308 54.7947 19.5687 55.0484C19.7066 55.3021 19.9389 55.4912 20.2153 55.5749C24.067 56.6885 28.1129 56.9623 32.0796 56.3776C36.0462 55.7929 39.8411 54.3634 43.2075 52.1858C46.5739 50.0082 49.4333 47.1333 51.5925 43.7554C53.7517 40.3775 55.1602 36.5754 55.7229 32.6062C56.2855 28.6371 55.9892 24.5934 54.8539 20.7487C53.7186 16.9039 51.7708 13.3477 49.1422 10.3206C46.5136 7.29346 43.2655 4.86595 39.6176 3.20222C35.9697 1.53849 32.007 0.677344 27.9974 0.677002Z" fill="#EF7E01"/>
</svg>
