<svg width="56" height="56" viewBox="0 0 56 56" fill="none" xmlns="http://www.w3.org/2000/svg">
<path d="M4.91656 25.0749C5.62925 25.075 6.33317 24.9048 6.97808 24.5764C7.623 24.248 8.19301 23.7695 8.64739 23.1751L15.5601 26.7847C15.391 27.6547 15.4288 28.5569 15.6699 29.4068C15.911 30.2567 16.3475 31.0264 16.9385 31.6437C17.5295 32.261 18.2556 32.7058 19.0487 32.9363C19.8419 33.1668 20.6761 33.1754 21.4732 32.9615C22.2702 32.7475 23.0041 32.3179 23.6059 31.713C24.2077 31.1081 24.6578 30.3476 24.9139 29.5029C25.17 28.6581 25.2238 27.7569 25.0702 26.8835C24.9166 26.0102 24.5607 25.1933 24.0358 24.5096L33.8443 10.097C34.7702 10.5129 35.7926 10.6064 36.7698 10.3647C37.747 10.123 38.6305 9.55798 39.2976 8.74808L46.3842 12.821C46.0932 14.0682 46.2339 15.3876 46.7799 16.5301C47.3259 17.6726 48.2394 18.5592 49.3479 19.0226C50.4563 19.4859 51.6831 19.4939 52.7967 19.0451C53.9103 18.5962 54.8335 17.7217 55.3922 16.5863C55.9509 15.451 56.1064 14.1336 55.8293 12.8827C55.5522 11.6318 54.8616 10.534 53.8881 9.79653C52.9145 9.05905 51.7252 8.73292 50.5447 8.8797C49.3643 9.02648 48.2743 9.63599 47.4805 10.5932L40.3939 6.5203C40.5949 5.65024 40.5866 4.73891 40.3697 3.87332C40.1529 3.00773 39.7346 2.21677 39.155 1.57597C38.5754 0.935157 37.8537 0.465904 37.0589 0.212977C36.2641 -0.0399502 35.4226 -0.0681071 34.6149 0.131223C33.8072 0.330554 33.0601 0.750689 32.4451 1.35154C31.83 1.9524 31.3675 2.71389 31.1017 3.56334C30.8359 4.41279 30.7756 5.32185 30.9266 6.20369C31.0777 7.08553 31.435 7.9107 31.9645 8.60048L22.1565 23.0125C21.2004 22.5829 20.1422 22.4967 19.1375 22.7667C18.1328 23.0367 17.2346 23.6486 16.5751 24.5124L9.66239 20.9034C9.86783 19.8418 9.76454 18.7374 9.3667 17.7419C8.96886 16.7465 8.29602 15.9089 7.44063 15.3442C6.58525 14.7795 5.58933 14.5155 4.58972 14.5884C3.5901 14.6613 2.63587 15.0675 1.85818 15.7513C1.08049 16.4351 0.517496 17.3629 0.246585 18.4071C-0.0243272 19.4513 0.0101419 20.5607 0.345243 21.5829C0.680344 22.6051 1.29961 23.4897 2.11798 24.1154C2.93635 24.7411 3.91364 25.0771 4.91552 25.0771L4.91656 25.0749ZM51.0842 11.3679C51.5819 11.3678 52.0684 11.5275 52.4823 11.8267C52.8961 12.1259 53.2187 12.5513 53.4092 13.049C53.5998 13.5467 53.6497 14.0944 53.5527 14.6228C53.4557 15.1513 53.2162 15.6367 52.8644 16.0177C52.5125 16.3987 52.0642 16.6583 51.5762 16.7635C51.0881 16.8687 50.5822 16.8149 50.1223 16.6088C49.6625 16.4027 49.2695 16.0537 48.9929 15.6058C48.7164 15.1579 48.5687 14.6313 48.5686 14.0925C48.5697 13.3707 48.8349 12.6787 49.3062 12.168C49.7775 11.6574 50.4165 11.3697 51.0832 11.3679H51.0842ZM35.6948 2.52312C36.1925 2.52301 36.679 2.68265 37.0928 2.98185C37.5067 3.28106 37.8292 3.70637 38.0198 4.20404C38.2103 4.70172 38.2603 5.24938 38.1634 5.77779C38.0664 6.3062 37.8269 6.79164 37.4751 7.1727C37.1234 7.55376 36.6751 7.81333 36.1871 7.91861C35.699 8.02389 35.1931 7.97013 34.7333 7.76414C34.2735 7.55816 33.8804 7.20921 33.6038 6.76138C33.3271 6.31355 33.1794 5.78698 33.1792 5.24824C33.1801 4.52629 33.4453 3.83417 33.9166 3.32342C34.3879 2.81266 35.027 2.52488 35.6938 2.52312H35.6948ZM20.3054 25.135C20.8031 25.1348 21.2896 25.2943 21.7035 25.5935C22.1174 25.8926 22.4401 26.3179 22.6307 26.8156C22.8214 27.3132 22.8714 27.8609 22.7745 28.3894C22.6776 28.9178 22.4382 29.4033 22.0864 29.7844C21.7347 30.1655 21.2864 30.4252 20.7984 30.5305C20.3103 30.6358 19.8044 30.5821 19.3445 30.3761C18.8846 30.1701 18.4915 29.8212 18.2149 29.3733C17.9382 28.9255 17.7905 28.3989 17.7903 27.8601C17.7915 27.1385 18.0567 26.4467 18.5279 25.9362C18.9991 25.4257 19.6378 25.138 20.3044 25.1361L20.3054 25.135ZM4.91656 17.1022C5.41407 17.1022 5.90039 17.2619 6.31407 17.5611C6.72775 17.8603 7.05021 18.2856 7.24065 18.7832C7.43108 19.2808 7.48097 19.8283 7.38399 20.3566C7.287 20.8849 7.04749 21.3701 6.69577 21.7511C6.34404 22.132 5.89589 22.3915 5.40796 22.4967C4.92004 22.6019 4.41426 22.5481 3.95456 22.3421C3.49486 22.1362 3.10188 21.7873 2.82533 21.3396C2.54878 20.8919 2.40107 20.3654 2.40086 19.8268C2.40195 19.1047 2.66731 18.4126 3.13882 17.9019C3.61034 17.3912 4.2496 17.1037 4.91656 17.1022Z" fill="#EF7E01"/>
<path d="M23.9667 37.1921H16.6429C16.3103 37.1926 15.9915 37.3359 15.7564 37.5905C15.5214 37.8452 15.3893 38.1905 15.3892 38.5505V54.6401C15.3892 54.8184 15.4216 54.995 15.4846 55.1597C15.5476 55.3244 15.64 55.4741 15.7565 55.6002C15.873 55.7263 16.0112 55.8263 16.1634 55.8945C16.3156 55.9628 16.4787 55.9979 16.6434 55.9979C16.8081 55.9979 16.9712 55.9628 17.1234 55.8945C17.2755 55.8263 17.4138 55.7263 17.5303 55.6002C17.6468 55.4741 17.7391 55.3244 17.8022 55.1597C17.8652 54.995 17.8976 54.8184 17.8976 54.6401V39.91H22.7124V54.6418C22.7191 54.9972 22.8542 55.3356 23.0887 55.5844C23.3233 55.8333 23.6386 55.9726 23.9669 55.9726C24.2953 55.9726 24.6106 55.8333 24.8451 55.5844C25.0797 55.3356 25.2148 54.9972 25.2214 54.6418V38.5522C25.2214 38.1918 25.0893 37.8461 24.854 37.5911C24.6187 37.3361 24.2996 37.1926 23.9667 37.1921Z" fill="#EF7E01"/>
<path d="M54.746 23.2512H47.4222C47.0896 23.2517 46.7707 23.3949 46.5356 23.6496C46.3005 23.9043 46.1682 24.2495 46.168 24.6096V54.6419C46.1746 54.9973 46.3097 55.3358 46.5443 55.5846C46.7788 55.8334 47.0941 55.9727 47.4225 55.9727C47.7509 55.9727 48.0662 55.8334 48.3007 55.5846C48.5352 55.3358 48.6703 54.9973 48.677 54.6419V25.9674H53.4913V54.6419C53.4913 55.0021 53.6234 55.3475 53.8587 55.6022C54.0939 55.8569 54.413 56 54.7457 56C55.0785 56 55.3976 55.8569 55.6328 55.6022C55.8681 55.3475 56.0002 55.0021 56.0002 54.6419V24.6096C56 24.2495 55.8677 23.9043 55.6326 23.6496C55.3975 23.3949 55.0786 23.2517 54.746 23.2512Z" fill="#EF7E01"/>
<path d="M8.57803 29.0276H1.25424C0.921627 29.028 0.602772 29.1713 0.36763 29.426C0.132487 29.6807 0.000272268 30.0259 0 30.386V54.6422C0.00664892 54.9976 0.141724 55.3361 0.376264 55.5849C0.610805 55.8337 0.926105 55.9731 1.25449 55.9731C1.58287 55.9731 1.89817 55.8337 2.13271 55.5849C2.36725 55.3361 2.50236 54.9976 2.50901 54.6422V31.7438H7.3238V54.6422C7.3238 55.0024 7.45594 55.3478 7.69121 55.6025C7.92647 55.8572 8.24557 56.0003 8.57828 56.0003C8.911 56.0003 9.2301 55.8572 9.46536 55.6025C9.70063 55.3478 9.83277 55.0024 9.83277 54.6422V30.386C9.83236 30.0259 9.70005 29.6806 9.46483 29.426C9.2296 29.1713 8.91069 29.028 8.57803 29.0276Z" fill="#EF7E01"/>
<path d="M39.3569 16.72H32.0326C31.7 16.7204 31.3811 16.8637 31.146 17.1184C30.9108 17.373 30.7786 17.7183 30.7783 18.0784V54.6418C30.785 54.9972 30.9201 55.3356 31.1546 55.5845C31.3892 55.8333 31.7045 55.9726 32.0328 55.9726C32.3612 55.9726 32.6765 55.8333 32.9111 55.5845C33.1456 55.3356 33.2807 54.9972 33.2873 54.6418V19.4367H38.1021V54.6418C38.1088 54.9972 38.2439 55.3356 38.4784 55.5845C38.713 55.8333 39.0282 55.9726 39.3566 55.9726C39.685 55.9726 40.0003 55.8333 40.2348 55.5845C40.4694 55.3356 40.6045 54.9972 40.6111 54.6418V18.0784C40.6109 17.7183 40.4786 17.373 40.2435 17.1184C40.0084 16.8637 39.6895 16.7204 39.3569 16.72Z" fill="#EF7E01"/>
</svg>
