<svg width="44" height="44" viewBox="0 0 44 44" fill="none" xmlns="http://www.w3.org/2000/svg">
<path fill-rule="evenodd" clip-rule="evenodd" d="M5.18358 1.40529C5.66476 0.924832 6.24255 0.552123 6.87867 0.31186C7.51479 0.0715973 8.19471 -0.0307329 8.87336 0.0116507C9.55202 0.0540343 10.2139 0.240164 10.8152 0.557705C11.4165 0.875246 11.9434 1.31695 12.3611 1.85354L17.2973 8.19504C18.2021 9.35829 18.5211 10.8735 18.1636 12.3035L16.6593 18.326C16.5816 18.638 16.5858 18.9647 16.6715 19.2745C16.7573 19.5844 16.9217 19.8668 17.1488 20.0943L23.9056 26.851C24.1334 27.0786 24.4162 27.2433 24.7266 27.3291C25.037 27.4149 25.3642 27.4188 25.6766 27.3405L31.6963 25.8363C32.402 25.6598 33.1386 25.6461 33.8503 25.7962C34.5621 25.9463 35.2304 26.2562 35.8048 26.7025L42.1463 31.636C44.4261 33.4098 44.6351 36.7785 42.5946 38.8163L39.7511 41.6598C37.7161 43.6948 34.6746 44.5885 31.8393 43.5903C24.5826 41.037 17.9938 36.8826 12.5618 31.4353C7.11487 26.0041 2.9605 19.4163 0.40683 12.1605C-0.58867 9.32804 0.30508 6.28379 2.34008 4.24879L5.18358 1.40529Z" fill="#EF7E01"/>
</svg>
