<svg width="56" height="57" viewBox="0 0 56 57" fill="none" xmlns="http://www.w3.org/2000/svg">
<path d="M22.5061 17.4675C22.5061 12.2107 21.2155 9.62573 18.0946 9.62573C15.1368 9.62573 13.6294 12.2085 13.6294 17.4956C13.6294 22.854 14.9136 25.5903 18.0188 25.5903C18.5991 25.6003 19.1752 25.4879 19.7115 25.2598L22.6262 27.4828L23.6094 26.2679L20.9889 24.2649C22.0567 22.9443 22.5061 20.6556 22.5061 17.4675ZM15.3357 17.4579C15.3357 13.2333 16.2161 11.1137 18.0562 11.1137C19.9338 11.1137 20.7998 12.972 20.7998 17.4877C20.7998 21.9464 19.999 24.1106 18.0712 24.1106C16.2034 24.1106 15.3357 21.8815 15.3357 17.4579Z" fill="#EF7E01"/>
<path d="M35.267 45.5707L36.3629 40.6478H40.2817L41.3921 45.5707H43.1508L39.4025 30.0579H37.2557L33.6147 45.5707H35.267ZM38.2486 31.6642H38.301C38.5021 32.8997 39.0677 35.3252 39.9426 39.1362H36.6866C37.4278 35.8074 38.0429 33.0168 38.2491 31.6664L38.2486 31.6642Z" fill="#EF7E01"/>
<path d="M36.3589 18.6898C36.3587 13.8488 34.4897 9.20616 31.1629 5.7831C27.8362 2.36005 23.3242 0.436949 18.6195 0.436833C16.289 0.430409 13.9804 0.899697 11.8274 1.81753C9.67431 2.73537 7.71955 4.0835 6.07626 5.78393C3.27366 8.69024 1.4965 12.4778 1.02766 16.5435C0.55882 20.6092 1.42527 24.7195 3.48907 28.2199L0.06018 36.7333C0.000511728 36.8808 -0.0152318 37.0433 0.014944 37.2C0.0451197 37.3568 0.119864 37.5008 0.229685 37.6138C0.339507 37.7268 0.479466 37.8037 0.631818 37.8348C0.784169 37.8658 0.942086 37.8496 1.08548 37.7882L9.35904 34.2596C12.7609 36.3834 16.7554 37.2751 20.7067 36.7926C24.658 36.3102 28.3389 34.4814 31.1632 31.5974C32.8157 29.9063 34.1258 27.8947 35.0176 25.6791C35.9095 23.4635 36.3654 21.0879 36.3589 18.6898ZM9.85908 32.6743C9.75256 32.6039 9.63116 32.561 9.5051 32.5493C9.37904 32.5375 9.25206 32.5573 9.13499 32.6068L2.23764 35.5486L5.09614 28.4518C5.14478 28.331 5.16424 28.1999 5.15282 28.0696C5.1414 27.9394 5.09945 27.814 5.03058 27.7041C3.04216 24.5037 2.17236 20.7019 2.56444 16.9249C2.95651 13.1478 4.58706 9.62084 7.18756 6.92481C10.22 3.80449 14.3328 2.05149 18.6213 2.05144C22.9098 2.0514 27.0227 3.80433 30.0551 6.9246C33.0876 10.0449 34.7913 14.2769 34.7913 18.6896C34.7913 23.1024 33.0878 27.3344 30.0554 30.4548C27.435 33.131 24.0069 34.8091 20.3358 35.2125C16.6648 35.6159 12.9696 34.7207 9.85908 32.6743Z" fill="#EF7E01"/>
<path d="M55.9382 55.3212L52.6158 47.07C54.1929 44.4143 55.0633 41.3785 55.1396 38.2672C55.2159 35.1559 54.4954 32.0787 53.0505 29.3445C51.6056 26.6104 49.4871 24.3154 46.9076 22.6901C44.3282 21.0648 41.3787 20.1662 38.3551 20.0847C38.1494 20.083 37.9513 20.1643 37.8033 20.3112C37.6553 20.4582 37.5693 20.659 37.5637 20.8706C37.5581 21.0821 37.6334 21.2874 37.7735 21.4424C37.9135 21.5974 38.107 21.6897 38.3125 21.6994C41.0927 21.7742 43.8034 22.6091 46.1663 24.1181C48.5293 25.6272 50.4595 27.7562 51.7586 30.2864C53.0577 32.8167 53.6791 35.6572 53.5588 38.5162C53.4385 41.3752 52.5811 44.1497 51.0743 46.555C51.0055 46.665 50.9636 46.7904 50.9522 46.9206C50.9408 47.0508 50.9602 47.1819 51.0087 47.3028L53.762 54.1374L47.1194 51.3043C47.0022 51.255 46.8753 51.2354 46.7492 51.2472C46.6232 51.259 46.5018 51.3019 46.3952 51.3723C44.1151 52.8844 41.4926 53.7617 38.7842 53.9182C36.0758 54.0748 33.3743 53.5053 30.944 52.2654C28.5136 51.0255 26.4377 49.1577 24.9192 46.8447C23.4007 44.5318 22.4917 41.8528 22.2812 39.07C22.2732 38.9643 22.2451 38.8612 22.1984 38.7666C22.1518 38.6721 22.0874 38.5879 22.0092 38.5189C21.9309 38.4499 21.8402 38.3975 21.7422 38.3646C21.6443 38.3317 21.541 38.3189 21.4382 38.3271C21.3355 38.3353 21.2352 38.3642 21.1433 38.4122C21.0514 38.4602 20.9696 38.5264 20.9026 38.6069C20.8356 38.6875 20.7846 38.7808 20.7526 38.8816C20.7207 38.9824 20.7083 39.0887 20.7162 39.1945C20.9448 42.2203 21.924 45.1351 23.5601 47.6603C25.1963 50.1855 27.4347 52.2365 30.0612 53.6173C32.6878 54.9981 35.6147 55.6624 38.562 55.5467C41.5094 55.431 44.3786 54.5393 46.8953 52.9567L54.9146 56.3753C55.0581 56.4365 55.2159 56.4526 55.3682 56.4215C55.5205 56.3903 55.6604 56.3134 55.7702 56.2004C55.88 56.0874 55.9547 55.9434 55.9849 55.7866C56.0151 55.6299 55.9995 55.4675 55.9399 55.3199L55.9382 55.3212Z" fill="#EF7E01"/>
</svg>
